# xmcd
#
# Track frame offsets:
#	150
#	15022
#	27360
#	43735
#	69737
#	115162
#	138182
#	165300
#	194650
#	212255
#	246880
#	273875
#
# Disc length: 4024
#
# Revision: 2
# Processed by: cddbd v1.5.1PL0 Copyright (c) Steve Scherf et al.
# Submitted via: CDex 1.60beta1
# Normalized: r0:DSETVAR1,TSWAP
#
DISCID=9a0fb60c
DTITLE=Various Artist - More of the Most Relaxing Jazz Music in the Universe [CD2]
DYEAR=2003
DGENRE=Jazz
TTITLE0=Dexter Gordon - I Can't Escape from You
TTITLE1=Erroll Garner - Laura
TTITLE2=The Modern Jazz Quartet - Love Me, Pretty Baby
TTITLE3=Kenny Burrell - It Could Happen to You
TTITLE4=Woody Shaw - It Might as Well Be Spring
TTITLE5=Sonny Stitt - Angel Eyes
TTITLE6=Houston Person - I Thought About You
TTITLE7=Milt Jackson - You Leave Me Breathless
TTITLE8=Sadao Watanabe - My Romance
TTITLE9=Willis "Gator" Jackson - Blue Velvet
TTITLE10=Sonny Criss - Blues in My Heart
TTITLE11=Charles Earland - Always and Forever
EXTD=YEAR: 2003
EXTT0=
EXTT1=
EXTT2=
EXTT3=
EXTT4=
EXTT5=
EXTT6=
EXTT7=
EXTT8=
EXTT9=
EXTT10=
EXTT11=
PLAYORDER=
